# xmcd
#
# Track frame offsets: 
#        183
#        14385
#        28213
#        43005
#        52023
#        59163
#        72850
#        82790
#        93985
#        109450
#
# Disc length: 2115 seconds
#
# Revision: 15
# Processed by: cddbd v1.5.2PL0 Copyright (c) Steve Scherf et al.
# Submitted via: ExactAudioCopy v1.0b3
#
DISCID=8908410a
DTITLE=Doors, The - Strange Days
DYEAR=1985
DGENRE=Rock
TTITLE0=Strange Days
TTITLE1=You're Lost Little Girl
TTITLE2=Love Me Two Times
TTITLE3=Unhappy Girl
TTITLE4=Horse Latitudes
TTITLE5=Moonlight Drive
TTITLE6=People Are Strange
TTITLE7=My Eyes Have Seen You
TTITLE8=I Can't See Your Face In My Mind
TTITLE9=When The Music's Over
EXTD=
EXTT0=
EXTT1=
EXTT2=
EXTT3=
EXTT4=
EXTT5=
EXTT6=
EXTT7=
EXTT8=
EXTT9=
PLAYORDER=
